<svg width="30" height="30" viewBox="0 0 30 30" fill="none" xmlns="http://www.w3.org/2000/svg">
<g clip-path="url(#clip0_2087_27413)">
<path fill-rule="evenodd" clip-rule="evenodd" d="M2 22.7861L14.4962 29.9999L14.5357 15.6437L2.03948 8.42993L2 22.7861Z" fill="#ABB4BE"/>
<path fill-rule="evenodd" clip-rule="evenodd" d="M15.7503 15.6438L15.7093 30L28.1235 22.7862L28.1645 8.43L15.7503 15.6438ZM2.64673 7.21379L15.1429 14.4291L27.5571 7.21531L15.0609 0L2.64673 7.21379Z" fill="#ABB4BE"/>
<path fill-rule="evenodd" clip-rule="evenodd" d="M7.72966 19.5006L14.3943 23.3479L14.4154 15.6913L7.75072 11.8439L7.72966 19.5006Z" fill="#4A5974"/>
<path fill-rule="evenodd" clip-rule="evenodd" d="M7.72966 19.5006L14.3943 23.3479L14.4154 15.6913L7.75072 11.8439L7.72966 19.5006Z" fill="black" fill-opacity="0.2"/>
<path fill-rule="evenodd" clip-rule="evenodd" d="M7.72966 19.5006L14.3943 23.3479L14.4154 15.6913L7.75072 11.8439L7.72966 19.5006Z" fill="black" fill-opacity="0.2"/>
<path fill-rule="evenodd" clip-rule="evenodd" d="M7.72966 19.5006L14.3943 23.3479L14.4154 15.6913L7.75072 11.8439L7.72966 19.5006Z" fill="black" fill-opacity="0.2"/>
<path fill-rule="evenodd" clip-rule="evenodd" d="M7.72966 19.5006L14.3943 23.3479L14.4154 15.6913L7.75072 11.8439L7.72966 19.5006Z" fill="black" fill-opacity="0.2"/>
<path fill-rule="evenodd" clip-rule="evenodd" d="M7.72966 19.5006L14.3943 23.3479L14.4154 15.6913L7.75072 11.8439L7.72966 19.5006Z" fill="black" fill-opacity="0.2"/>
<path fill-rule="evenodd" clip-rule="evenodd" d="M7.72966 19.5006L14.3943 23.3479L14.4154 15.6913L7.75072 11.8439L7.72966 19.5006Z" fill="black" fill-opacity="0.2"/>
<path fill-rule="evenodd" clip-rule="evenodd" d="M7.72966 19.5006L14.3943 23.3479L14.4154 15.6913L7.75072 11.8439L7.72966 19.5006Z" fill="black" fill-opacity="0.2"/>
<path fill-rule="evenodd" clip-rule="evenodd" d="M7.72966 19.5006L14.3943 23.3479L14.4154 15.6913L7.75072 11.8439L7.72966 19.5006Z" fill="black" fill-opacity="0.2"/>
<path fill-rule="evenodd" clip-rule="evenodd" d="M7.72966 19.5006L14.3943 23.3479L14.4154 15.6913L7.75072 11.8439L7.72966 19.5006Z" fill="black" fill-opacity="0.2"/>
<path fill-rule="evenodd" clip-rule="evenodd" d="M7.72966 19.5006L14.3943 23.3479L14.4154 15.6913L7.75072 11.8439L7.72966 19.5006Z" fill="black" fill-opacity="0.2"/>
<path fill-rule="evenodd" clip-rule="evenodd" d="M7.72966 19.5006L14.3943 23.3479L14.4154 15.6913L7.75072 11.8439L7.72966 19.5006Z" fill="black" fill-opacity="0.2"/>
<path fill-rule="evenodd" clip-rule="evenodd" d="M15.8062 15.5556L15.7844 23.2123L22.4053 19.3649L22.4271 11.7083L15.8062 15.5556ZM8.33536 10.6518L15 14.5L21.6209 10.6526L14.9563 6.80445L8.33536 10.6518Z" fill="#4A5974"/>
<path fill-rule="evenodd" clip-rule="evenodd" d="M15.8062 15.5556L15.7844 23.2123L22.4053 19.3649L22.4271 11.7083L15.8062 15.5556ZM8.33536 10.6518L15 14.5L21.6209 10.6526L14.9563 6.80445L8.33536 10.6518Z" fill="black" fill-opacity="0.2"/>
<path fill-rule="evenodd" clip-rule="evenodd" d="M15.8062 15.5556L15.7844 23.2123L22.4053 19.3649L22.4271 11.7083L15.8062 15.5556ZM8.33536 10.6518L15 14.5L21.6209 10.6526L14.9563 6.80445L8.33536 10.6518Z" fill="black" fill-opacity="0.2"/>
<path fill-rule="evenodd" clip-rule="evenodd" d="M15.8062 15.5556L15.7844 23.2123L22.4053 19.3649L22.4271 11.7083L15.8062 15.5556ZM8.33536 10.6518L15 14.5L21.6209 10.6526L14.9563 6.80445L8.33536 10.6518Z" fill="black" fill-opacity="0.2"/>
<path fill-rule="evenodd" clip-rule="evenodd" d="M15.8062 15.5556L15.7844 23.2123L22.4053 19.3649L22.4271 11.7083L15.8062 15.5556ZM8.33536 10.6518L15 14.5L21.6209 10.6526L14.9563 6.80445L8.33536 10.6518Z" fill="black" fill-opacity="0.2"/>
<path fill-rule="evenodd" clip-rule="evenodd" d="M15.8062 15.5556L15.7844 23.2123L22.4053 19.3649L22.4271 11.7083L15.8062 15.5556ZM8.33536 10.6518L15 14.5L21.6209 10.6526L14.9563 6.80445L8.33536 10.6518Z" fill="black" fill-opacity="0.2"/>
<path fill-rule="evenodd" clip-rule="evenodd" d="M15.8062 15.5556L15.7844 23.2123L22.4053 19.3649L22.4271 11.7083L15.8062 15.5556ZM8.33536 10.6518L15 14.5L21.6209 10.6526L14.9563 6.80445L8.33536 10.6518Z" fill="black" fill-opacity="0.2"/>
<path fill-rule="evenodd" clip-rule="evenodd" d="M15.8062 15.5556L15.7844 23.2123L22.4053 19.3649L22.4271 11.7083L15.8062 15.5556ZM8.33536 10.6518L15 14.5L21.6209 10.6526L14.9563 6.80445L8.33536 10.6518Z" fill="black" fill-opacity="0.2"/>
<path fill-rule="evenodd" clip-rule="evenodd" d="M15.8062 15.5556L15.7844 23.2123L22.4053 19.3649L22.4271 11.7083L15.8062 15.5556ZM8.33536 10.6518L15 14.5L21.6209 10.6526L14.9563 6.80445L8.33536 10.6518Z" fill="black" fill-opacity="0.2"/>
<path fill-rule="evenodd" clip-rule="evenodd" d="M15.8062 15.5556L15.7844 23.2123L22.4053 19.3649L22.4271 11.7083L15.8062 15.5556ZM8.33536 10.6518L15 14.5L21.6209 10.6526L14.9563 6.80445L8.33536 10.6518Z" fill="black" fill-opacity="0.2"/>
<path fill-rule="evenodd" clip-rule="evenodd" d="M15.8062 15.5556L15.7844 23.2123L22.4053 19.3649L22.4271 11.7083L15.8062 15.5556ZM8.33536 10.6518L15 14.5L21.6209 10.6526L14.9563 6.80445L8.33536 10.6518Z" fill="black" fill-opacity="0.2"/>
<path fill-rule="evenodd" clip-rule="evenodd" d="M15.8062 15.5556L15.7844 23.2123L22.4053 19.3649L22.4271 11.7083L15.8062 15.5556ZM8.33536 10.6518L15 14.5L21.6209 10.6526L14.9563 6.80445L8.33536 10.6518Z" fill="black" fill-opacity="0.2"/>
<path d="M15.5454 27.4553V16.5447L26.4544 16.5455V27.4553H15.5454Z" fill="#79879C"/>
<path fill-rule="evenodd" clip-rule="evenodd" d="M17.5911 14.5V15.8634H18.9545V14.5H17.5911ZM20.3179 14.5V15.8634H21.6821V14.5H20.3179ZM23.0455 14.5V15.8634H24.4089V14.5H23.0455ZM13.5 18.5918V19.9553H14.8634V18.5911L13.5 18.5918ZM27.1366 18.5918V19.9553H28.5V18.5911L27.1366 18.5918ZM13.5 21.3179V22.6821H14.8634V21.3179H13.5ZM27.1366 21.3179V22.6821H28.5V21.3179H27.1366ZM13.5 24.0455V25.4089H14.8634V24.0455H13.5ZM27.1366 24.0455V25.4089H28.5V24.0455H27.1366ZM17.5911 28.1366V29.5H18.9545V28.1366H17.5911ZM20.3179 28.1366V29.5H21.6821V28.1366H20.3179ZM23.0455 28.1366V29.5H24.4089V28.1366H23.0455Z" fill="#404E68"/>
<path fill-rule="evenodd" clip-rule="evenodd" d="M17.5911 14.5V15.8634H18.9545V14.5H17.5911ZM20.3179 14.5V15.8634H21.6821V14.5H20.3179ZM23.0455 14.5V15.8634H24.4089V14.5H23.0455ZM13.5 18.5911V19.9545H14.8634V18.5911H13.5ZM27.1366 18.5911V19.9545H28.5V18.5911H27.1366ZM13.5 21.3179V22.6821H14.8634V21.3179H13.5ZM27.1366 21.3179V22.6821H28.5V21.3179H27.1366ZM13.5 24.0455V25.4089H14.8634V24.0455H13.5ZM27.1366 24.0455V25.4089H28.5V24.0455H27.1366ZM17.5911 28.1366V29.5H18.9545V28.1366H17.5911ZM20.3179 28.1366V29.5H21.6821V28.1366H20.3179ZM23.0455 28.1366V29.5H24.4089V28.1366H23.0455Z" fill="#404E68"/>
<path d="M18.6316 19.6316H23.3684V24.3685H18.6316V19.6316Z" fill="#D1D7DF"/>
</g>
<defs>
<clipPath id="clip0_2087_27413">
<rect width="30" height="30" fill="white"/>
</clipPath>
</defs>
</svg>
