<svg width="24" height="24" viewBox="0 0 24 24" fill="none" xmlns="http://www.w3.org/2000/svg">
<g clip-path="url(#clip0_201_15438)">
<path fill-rule="evenodd" clip-rule="evenodd" d="M0 1.34941L1.33333 0H22.6666L24 1.34941V22.6813L22.724 24H1.396L0 22.6826V1.34941ZM2.66667 3.71621V20.3091L3.752 21.3345H20.3413L21.3333 20.3078V3.71754L20.296 2.66682H3.704L2.66667 3.71621Z" fill="#6B7B95"/>
<path fill-rule="evenodd" clip-rule="evenodd" d="M2 3.12429L3.11143 2H20.8886L22 3.12429V20.9015L20.9371 22H3.16286L2 20.9V3.12429ZM19.8572 4.14285L19.1429 3.42857V4.85714H20.5715L19.8572 4.14285ZM4.14286 4.14285L3.42857 4.85714H4.85715V3.42857L4.14286 4.14285ZM4.14286 19.8572L4.85715 20.5715V19.1429H3.42857L4.14286 19.8572ZM19.8572 19.8572L20.5715 19.1429H19.1429V20.5715L19.8572 19.8572ZM8.25716 9.26861C7.60568 9.26861 7.10858 9.47997 6.76572 9.91426C6.46286 10.2915 6.31429 10.7886 6.31429 11.3943C6.31429 12.0114 6.45715 12.5029 6.74858 12.8686C7.08001 13.2915 7.58854 13.5086 8.26856 13.5086C8.70859 13.5086 9.08571 13.3828 9.40001 13.1315C9.73719 12.8628 9.94855 12.4915 10.04 12.0114H9.38861C9.30856 12.32 9.17142 12.5543 8.97712 12.7086C8.76859 12.8553 8.51771 12.9295 8.2629 12.92C7.81712 12.92 7.48572 12.7771 7.27429 12.5029C7.08001 12.2457 6.98286 11.8743 6.98286 11.3943C6.98286 10.9257 7.08001 10.56 7.28001 10.2971C7.49715 9.99997 7.81713 9.85717 8.24576 9.85717C8.53143 9.85717 8.76576 9.91426 8.94858 10.04C9.13714 10.1657 9.26287 10.36 9.33144 10.6286H9.98283C9.93689 10.2441 9.74448 9.89206 9.44569 9.64573C9.13714 9.39426 8.73713 9.26861 8.25716 9.26861ZM10.6686 9.34857V13.4286H11.3371V11.8629H12.3486C13.3429 11.8629 13.84 11.44 13.84 10.6C13.84 9.76572 13.3429 9.34857 12.36 9.34857H10.6686ZM11.3371 9.92H12.3086C12.6 9.92 12.8172 9.97142 12.9543 10.08C13.0914 10.1829 13.1657 10.3543 13.1657 10.6C13.1657 10.8457 13.0972 11.0228 12.96 11.1314C12.8229 11.2343 12.6057 11.2914 12.3086 11.2914H11.3371V9.92ZM14.4114 9.34857V11.88C14.4114 12.4114 14.56 12.8172 14.8629 13.1028C15.1485 13.3714 15.5657 13.5086 16.1086 13.5086C16.6457 13.5086 17.0629 13.3714 17.36 13.0972C17.6572 12.8172 17.8057 12.4114 17.8057 11.88V9.34857H17.1372V11.8914C17.1372 12.2457 17.0515 12.5029 16.8915 12.6743C16.7257 12.84 16.4629 12.9257 16.1086 12.9257C15.7486 12.9257 15.4857 12.84 15.3257 12.6743C15.16 12.5029 15.08 12.2457 15.08 11.8914V9.34857H14.4114Z" fill="#B6C2CD"/>
<path fill-rule="evenodd" clip-rule="evenodd" d="M4.86666 6.2935L5.53336 5.76013V6.82686H4.19995L4.86666 6.2935ZM19.5341 6.2935L18.8675 5.76013V6.82686H20.2008L19.5341 6.2935ZM19.5341 18.0275L18.8675 18.5609V17.4941H20.2008L19.5341 18.0275ZM4.86666 18.0275L5.53336 18.5609V17.4941H4.19995L4.86666 18.0275Z" fill="#324558"/>
<rect x="6.3999" y="10.08" width="12" height="4.48" fill="#B6C2CD"/>
<rect x="3" y="6" width="18" height="12" rx="2" fill="#36435C"/>
<path d="M4.88889 14.1H4.95209L4.97921 14.0429L5.45351 13.0448H7.46957L7.94387 14.0429L7.97099 14.1H8.03419H8.92308H9.08426L9.01267 13.9556L7.02977 9.95559L7.00221 9.9H6.94017H5.97531H5.91316L5.88565 9.95572L3.91034 13.9557L3.83909 14.1H4H4.88889ZM9.52203 14V14.1H9.62203H10.4577H10.5577V14V12.5917H11.5821H11.5849L12.6718 14.0595L12.7018 14.1H12.7521H13.7018H13.9022L13.7817 13.9399L12.6515 12.4374C12.9331 12.3402 13.1556 12.199 13.3138 12.0173C13.4981 11.8056 13.5891 11.5455 13.5891 11.2541C13.5891 10.8531 13.4168 10.5088 13.073 10.2685C12.7333 10.0312 12.2337 9.9 11.5821 9.9H9.62203H9.52203V10V14ZM14.416 9.9H14.316V10V14V14.1H14.416H15.2137H15.3137V14V11.4068L16.7902 14.0433L16.8189 14.0945H16.8775H17.5385H17.5972L17.6258 14.0432L19.1023 11.3994V14V14.1H19.2023H20H20.1V14V10V9.9H20H18.982H18.9234L18.8948 9.95105L17.208 12.9561L15.5212 9.95105L15.4925 9.9H15.434H14.416ZM5.78769 12.3365L6.45791 10.9223L7.13127 12.3365H5.78769ZM12.3208 11.6946C12.1591 11.8005 11.8955 11.8655 11.4984 11.8669H10.5577V10.6193H11.4984C11.8943 10.6207 12.1574 10.6908 12.3191 10.8014C12.4743 10.9077 12.5458 11.0579 12.5458 11.2541C12.5458 11.4498 12.4749 11.5938 12.3208 11.6946Z" fill="white" stroke="white" stroke-width="0.2"/>
</g>
<defs>
<clipPath id="clip0_201_15438">
<rect width="24" height="24" fill="white"/>
</clipPath>
</defs>
</svg>
