<svg width="24" height="25" viewBox="0 0 24 25" fill="none" xmlns="http://www.w3.org/2000/svg">
<path d="M16.8164 0.989986C17.4697 0.336671 18.5283 0.336671 19.1816 0.989986L23.5094 5.31787C24.1627 5.97118 24.1627 7.02982 23.5094 7.68313L19.1816 12.011C18.5283 12.6643 17.4697 12.6643 16.8164 12.011L12.4886 7.68313C11.8353 7.02982 11.8353 5.97118 12.4886 5.31787L16.8164 0.989986ZM2.3732 0.500667C1.06261 0.500667 0 1.5633 0 2.87393V8.41245C0 9.72308 1.06261 10.7857 2.3732 10.7857H7.91156C9.22215 10.7857 10.2848 9.72308 10.2848 8.41245V2.87393C10.2848 1.5633 9.22215 0.500667 7.91156 0.500667H2.3732ZM14.3725 14.215C13.0619 14.215 11.9993 15.2776 11.9993 16.5882V22.1267C11.9993 23.4374 13.0619 24.5 14.3725 24.5H19.9109C21.2215 24.5 22.2841 23.4374 22.2841 22.1267V16.5882C22.2841 15.2776 21.2215 14.215 19.9109 14.215H14.3725Z" fill="#ACBAC5"/>
<path d="M16.817 0.989986C17.4703 0.336671 18.5289 0.336671 19.1822 0.989986L23.51 5.31787C24.1633 5.97118 24.1633 7.02982 23.51 7.68313L19.1822 12.011C18.5289 12.6643 17.4703 12.6643 16.817 12.011L12.4892 7.68313C11.8359 7.02982 11.8359 5.97118 12.4892 5.31787L16.817 0.989986Z" fill="#394454"/>
<path d="M0 16.5882C0 15.2775 1.06261 14.2149 2.3732 14.2149H7.91156C9.22216 14.2149 10.2848 15.2775 10.2848 16.5882V22.1267C10.2848 23.4373 9.22216 24.5 7.91156 24.5H2.3732C1.06261 24.5 0 23.4373 0 22.1267V16.5882Z" fill="#6B7B95"/>
</svg>
