<svg width="24" height="24" viewBox="0 0 24 24" fill="none" xmlns="http://www.w3.org/2000/svg">
<path opacity="0.4" d="M6.34244 10.9844C6.68807 9.52435 7.52204 8.23054 8.70269 7.32274C9.88333 6.41493 11.3378 5.94912 12.8191 6.00441C14.3004 6.05971 15.7171 6.63271 16.8286 7.62609C17.94 8.61946 18.6777 9.97194 18.9163 11.4538C19.1549 12.9356 18.8797 14.4554 18.1374 15.755C17.3951 17.0546 16.2316 18.0538 14.8444 18.583C13.4572 19.1121 11.9319 19.1385 10.5277 18.6577C9.12349 18.1769 7.92689 17.2185 7.1412 15.9454L8.47088 15.1056C9.06355 16.0664 9.96587 16.7902 11.025 17.1544C12.0842 17.5186 13.235 17.5007 14.2827 17.104C15.3303 16.7072 16.2104 15.9558 16.7738 14.9771C17.3372 13.9984 17.5493 12.8525 17.3742 11.7335C17.1991 10.6146 16.6476 9.59129 15.813 8.83702C14.9784 8.08275 13.9121 7.64385 12.7946 7.59465C11.6772 7.54545 10.5773 7.88898 9.68125 8.56706C8.7852 9.24513 8.14808 10.2161 7.87778 11.3154L9.4243 11.6465L6.74261 13.4116L5 10.6953L6.34244 10.9844Z" fill="white"/>
<path opacity="0.9" fill-rule="evenodd" clip-rule="evenodd" d="M11 9H12.6992V12.5908L15 14.8311L13.7986 16L11.4978 13.7614C11.3398 13.6077 11.2145 13.4252 11.1291 13.2244C11.0437 13.0235 10.9998 12.8082 11 12.5908V9Z" fill="white"/>
</svg>
