<svg width="40" height="40" viewBox="0 0 40 40" fill="none" xmlns="http://www.w3.org/2000/svg">
<path fill-rule="evenodd" clip-rule="evenodd" d="M0 2.17646L2.15054 0H36.5591L38.7097 2.17646V36.5827L36.6516 38.7097H2.25161L0 36.5848V2.17646ZM4.30107 5.99388V32.7566L6.0516 34.4104H32.8086L34.4085 32.7545V5.99603L32.7354 4.30132H5.97419L4.30107 5.99388Z" fill="#CCD3DB"/>
<path fill-rule="evenodd" clip-rule="evenodd" d="M2.58057 4.46696L4.44436 2.58069H34.2651L36.129 4.46696V34.2857L34.3453 36.1291H4.53197L2.58057 34.2875V4.46696ZM6.30816 7.77539V30.9698L7.82529 32.4031H31.0147L32.4013 30.9679V7.77724L30.9513 6.3085H7.7582L6.30816 7.77539Z" fill="#5F708A"/>
<path fill-rule="evenodd" clip-rule="evenodd" d="M5.16138 6.75702L6.73889 5.16125H31.971L33.5485 6.75702V31.9891L32.0399 33.5484H6.81189L5.16138 31.9871V6.75702ZM30.507 8.20272L29.4932 7.18891V9.21655H31.5209L30.507 8.20272ZM8.20285 8.20272L7.18903 9.21655H9.21668V7.18891L8.20285 8.20272ZM8.20285 30.5069L9.21668 31.5208V29.4931H7.18903L8.20285 30.5069ZM30.507 30.5069L31.5209 29.4931H29.4932V31.5208L30.507 30.5069ZM14.0425 15.478C13.1178 15.478 12.4123 15.778 11.9256 16.3944C11.4958 16.9298 11.2849 17.6354 11.2849 18.4951C11.2849 19.371 11.4876 20.0685 11.9013 20.5876C12.3717 21.1879 13.0935 21.496 14.0587 21.496C14.6832 21.496 15.2185 21.3175 15.6646 20.9607C16.1432 20.5795 16.4432 20.0524 16.573 19.371H15.6484C15.5348 19.8091 15.3402 20.1415 15.0644 20.3605C14.7684 20.5688 14.4123 20.6741 14.0507 20.6606C13.4179 20.6606 12.9476 20.4578 12.6475 20.0685C12.3717 19.7036 12.2338 19.1763 12.2338 18.4951C12.2338 17.83 12.3717 17.3109 12.6556 16.9378C12.9638 16.516 13.4179 16.3134 14.0263 16.3134C14.4318 16.3134 14.7644 16.3944 15.0239 16.5729C15.2915 16.7513 15.47 17.0271 15.5673 17.4082H16.4919C16.4266 16.8625 16.1535 16.3629 15.7295 16.0133C15.2915 15.6563 14.7238 15.478 14.0425 15.478ZM17.4652 15.5915V21.3825H18.4141V19.1602H19.8497C21.261 19.1602 21.9666 18.5599 21.9666 17.3677C21.9666 16.1836 21.261 15.5915 19.8659 15.5915H17.4652ZM18.4141 16.4025H19.7929C20.2065 16.4025 20.5148 16.4755 20.7094 16.6297C20.9041 16.7757 21.0095 17.019 21.0095 17.3677C21.0095 17.7165 20.9122 17.9678 20.7176 18.122C20.5229 18.268 20.2147 18.3491 19.7929 18.3491H18.4141V16.4025ZM22.7776 15.5915V19.1845C22.7776 19.9387 22.9884 20.5146 23.4184 20.9201C23.8238 21.3014 24.4159 21.496 25.1865 21.496C25.9489 21.496 26.5409 21.3014 26.9627 20.9121C27.3845 20.5146 27.5953 19.9387 27.5953 19.1845V15.5915H26.6464V19.2007C26.6464 19.7036 26.5248 20.0685 26.2976 20.3118C26.0624 20.5471 25.6894 20.6688 25.1865 20.6688C24.6755 20.6688 24.3024 20.5471 24.0753 20.3118C23.8401 20.0685 23.7265 19.7036 23.7265 19.2007V15.5915H22.7776Z" fill="#B6C2CD"/>
<path fill-rule="evenodd" clip-rule="evenodd" d="M13.357 14.8035C14.0435 14.8035 14.6156 14.9833 15.0568 15.3428C15.4818 15.686 15.7352 16.16 15.825 16.7484H14.8933C14.8248 16.4084 14.6291 16.1072 14.3459 15.9067C14.0843 15.727 13.7493 15.6452 13.3407 15.6452C12.7278 15.6452 12.2702 15.8495 11.9596 16.2745C11.6736 16.6503 11.5347 17.1733 11.5347 17.8435C11.5347 18.53 11.6736 19.0611 11.9515 19.4288C12.2538 19.8211 12.7278 20.0254 13.3652 20.0254C13.7296 20.0391 14.0885 19.9328 14.3867 19.723C14.6646 19.5024 14.8607 19.1674 14.9751 18.7261H15.9068C15.776 19.4125 15.4736 19.9438 14.9915 20.3278C14.542 20.6874 14.0026 20.8671 13.3734 20.8671C12.4009 20.8671 11.6736 20.5566 11.1996 19.9518C10.7828 19.4288 10.5785 18.7261 10.5785 17.8435C10.5785 16.9772 10.791 16.2663 11.2241 15.727C11.7145 15.1059 12.4254 14.8035 13.357 14.8035ZM16.8056 14.9179H19.2246C20.6302 14.9179 21.3411 15.5144 21.3411 16.7076C21.3411 17.9089 20.6302 18.5136 19.2082 18.5136H17.7618V20.7527H16.8056V14.9179ZM17.7618 15.7351V17.6964H19.1511C19.576 17.6964 19.8865 17.6146 20.0826 17.4675C20.2787 17.3123 20.3768 17.059 20.3768 16.7076C20.3768 16.3561 20.2706 16.111 20.0745 15.9639C19.8783 15.8086 19.5678 15.7351 19.1511 15.7351H17.7618ZM22.1583 14.9179H23.1145V18.5545C23.1145 19.0611 23.2288 19.4288 23.4659 19.674C23.6946 19.911 24.0706 20.0336 24.5855 20.0336C25.0921 20.0336 25.468 19.911 25.705 19.674C25.9338 19.4288 26.0564 19.0611 26.0564 18.5545V14.9179H27.0126V18.5381C27.0126 19.2982 26.8 19.8783 26.3751 20.2787C25.9502 20.671 25.3537 20.8671 24.5855 20.8671C23.8091 20.8671 23.2125 20.671 22.8039 20.287C22.3708 19.8783 22.1583 19.2982 22.1583 18.5381V14.9179ZM7.47317 7.47317L8.49467 6.45166V8.49467H6.45166L7.47317 7.47317ZM29.9463 7.47317L28.9249 6.45166V8.49467H30.9678L29.9463 7.47317ZM29.9463 29.9463L28.9249 30.9678V28.9247H30.9678L29.9463 29.9463ZM7.47317 29.9463L8.49467 30.9678V28.9247H6.45166L7.47317 29.9463Z" fill="#324558"/>
<rect x="7.74194" y="14.1936" width="23.2258" height="11.6129" fill="#B6C2CD"/>
<path d="M20.1139 18.6078V33.5484M20.1139 18.6078L6.45166 5.16125M20.1139 18.6078L32.2581 5.16125" stroke="white" stroke-width="2"/>
<path d="M11.9399 18.0199L10.0747 23.3226H8.45361L6.59814 18.0199H8.12158L9.23486 21.8285H9.29346L10.4067 18.0199H11.9399ZM17.3696 18.5277C17.1694 17.8636 16.6372 17.4584 15.8657 17.4535C14.772 17.4584 14.0298 18.2933 14.0298 19.7777C14.0298 21.2719 14.7476 22.1166 15.8755 22.1215C16.8862 22.1166 17.4868 21.5453 17.5063 20.6566H15.9731V19.5531H18.9224V20.432C18.9224 22.2875 17.6479 23.4203 15.8657 23.4203C13.8833 23.4203 12.5356 22.0336 12.5356 19.7972C12.5356 17.5023 13.9712 16.1547 15.8364 16.1547C17.4331 16.1547 18.6587 17.1361 18.854 18.5277H17.3696ZM19.9966 23.3226V16.2523H22.77C24.3765 16.2523 25.2993 17.2435 25.2993 18.6351C25.2993 20.0463 24.3618 21.0179 22.731 21.0179H21.4614V23.3226H19.9966ZM21.4614 19.8363H22.4966C23.3657 19.8363 23.7905 19.348 23.7856 18.6351C23.7905 17.932 23.3657 17.4584 22.4966 17.4535H21.4614V19.8363ZM30.6021 16.2523H32.0767V20.8422C32.0767 22.39 30.8999 23.4252 29.147 23.4203C27.3892 23.4252 26.2271 22.39 26.2271 20.8422V16.2523H27.6919V20.725C27.6968 21.5404 28.2729 22.1263 29.147 22.1312C30.0308 22.1263 30.6069 21.5404 30.6021 20.725V16.2523Z" fill="#404E68"/>
</svg>
