<svg width="31" height="23" viewBox="0 0 31 23" fill="none" xmlns="http://www.w3.org/2000/svg">
<g clip-path="url(#clip0_43_44478)">
<path fill-rule="evenodd" clip-rule="evenodd" d="M7.83301 6.75H13.833V8.625H7.83301V6.75Z" fill="#B6C2CD"/>
<path fill-rule="evenodd" clip-rule="evenodd" d="M7.83301 10.5H13.833V12.375H7.83301V10.5Z" fill="#B6C2CD"/>
<path fill-rule="evenodd" clip-rule="evenodd" d="M16.833 6.75H28.083V12.375H16.833V6.75Z" fill="#B6C2CD"/>
<path fill-rule="evenodd" clip-rule="evenodd" d="M19.083 14.875H16.833V16.75H19.083V14.875Z" fill="#B6C2CD"/>
<path fill-rule="evenodd" clip-rule="evenodd" d="M21.333 14.875H23.583V16.75H21.333V14.875Z" fill="#B6C2CD"/>
<path fill-rule="evenodd" clip-rule="evenodd" d="M28.083 14.875H25.833V16.75H28.083V14.875Z" fill="#B6C2CD"/>
<path d="M4 0.5H27L31 5V22H4V0.5Z" fill="#79879C"/>
<path fill-rule="evenodd" clip-rule="evenodd" d="M4 20H6.82353V17.7333H10.3529L12.4706 19.4333V20H26.5882C27.368 20 28 19.4926 28 18.8667V5.26667L25.1765 3H4V20ZM6.82353 7.53333H12.4706V9.23333H6.82353V7.53333ZM12.4706 10.9333H6.82353V12.6333H12.4706V10.9333ZM15.2941 7.53333H25.8824V12.6333H15.2941V7.53333ZM15.2941 14.9H17.4118V16.6H15.2941V14.9ZM19.5294 14.9H21.6471V16.6H19.5294V14.9ZM23.7647 14.9H25.8824V16.6H23.7647V14.9Z" fill="#36435C"/>
<path fill-rule="evenodd" clip-rule="evenodd" d="M1.83301 0.5C1.00459 0.5 0.333008 1.05965 0.333008 1.75V21.75C0.333008 22.4404 1.00459 23 1.83301 23H4.83301V0.5H1.83301Z" fill="#B6C2CD"/>
<path fill-rule="evenodd" clip-rule="evenodd" d="M10.777 14.6263L15.8302 17.5434L15.8462 11.738L10.7929 8.82093L10.777 14.6263Z" fill="#D1D7DF"/>
<path fill-rule="evenodd" clip-rule="evenodd" d="M16.9008 11.6352L16.8842 17.4406L21.9042 14.5235L21.9208 8.71812L16.9008 11.6352ZM11.2363 7.91709L16.2895 10.8348L21.3095 7.91771L16.2563 4.99998L11.2363 7.91709Z" fill="#D1D7DF"/>
</g>
<defs>
<clipPath id="clip0_43_44478">
<rect width="31" height="23" fill="white"/>
</clipPath>
</defs>
</svg>
